<svg width="32" height="32" viewBox="0 0 32 32" fill="none" xmlns="http://www.w3.org/2000/svg">
<path fill-rule="evenodd" clip-rule="evenodd" d="M18.9221 0.0607213C16.6633 0.323025 14.4133 1.37574 12.703 2.97026C10.5256 5.00022 9.29688 7.57604 9.09661 10.5304C8.99831 11.9813 9.37636 14.0115 10.0065 15.4159C10.1076 15.6412 10.1903 15.8486 10.1903 15.8765C10.1903 15.9045 10.0295 15.978 9.83287 16.0398C9.33903 16.1952 8.75471 16.6008 8.58207 16.9082C8.44632 17.15 8.44157 17.214 8.44057 18.8309C8.44 19.7509 8.42656 20.5036 8.41062 20.5036C8.39467 20.5036 8.23291 20.4447 8.05108 20.3728C7.50197 20.1556 6.70174 20.0055 5.8638 19.9625C5.18119 19.9275 5.04769 19.9365 4.91026 20.0265C4.78502 20.1086 4.75044 20.1829 4.75044 20.3703C4.75044 20.7673 4.87831 20.8313 5.78677 20.8885C6.99187 20.9645 8.00588 21.2527 8.33008 21.6115C8.43463 21.7272 8.43325 21.7382 8.29882 21.8642C7.97355 22.1687 6.99512 22.4565 5.89663 22.5708C4.46462 22.7198 2.53365 22.3514 2.05225 21.8373L1.90543 21.6805L2.08851 21.5341C2.18918 21.4537 2.42779 21.328 2.61881 21.2549C2.80983 21.1818 3.01586 21.077 3.0767 21.0219C3.23971 20.8744 3.21814 20.5543 3.03337 20.3808C2.84253 20.2016 2.59786 20.2286 2.03968 20.4907C1.54377 20.7235 1.25952 20.9674 1.11633 21.2826C1.00847 21.52 1.00147 21.8025 1.00016 25.9616C0.998844 30.2329 1.0031 30.3963 1.12109 30.6277C1.34337 31.0634 1.82252 31.3701 2.71829 31.6503C2.99341 31.7363 3.42954 31.8448 3.68747 31.8912C4.28623 31.9991 6.0794 32.0023 6.65753 31.8965C7.33458 31.7725 8.25261 31.4707 8.57425 31.2661L8.86525 31.0811L9.38942 31.3442C10.6598 31.9817 12.6631 32.175 14.3678 31.8246C15.0949 31.6752 15.7399 31.4501 16.0759 31.2286L16.3028 31.079L16.7788 31.3285C17.3359 31.6203 18.1598 31.8434 19.0738 31.9497C20.7898 32.1493 22.958 31.7351 23.7232 31.0615C24.215 30.6286 24.1965 30.7457 24.1965 28.0663C24.1965 25.3968 24.1995 25.4171 23.7553 25.0653C22.5237 24.0898 19.5103 23.8313 17.4385 24.5234L16.8183 24.7306V23.1798C16.8183 22.1081 16.8392 21.6291 16.886 21.6291C16.9233 21.6291 17.1695 21.6836 17.4331 21.7503C18.8101 22.0986 20.682 22.1789 22.0192 21.947C25.1408 21.4055 27.8331 19.5213 29.5221 16.696C32.0674 12.4382 31.5599 7.23927 28.2488 3.65237C27.2254 2.54369 26.9782 2.397 26.6636 2.71164C26.3831 2.99208 26.4445 3.13051 27.1879 3.8941C27.9777 4.70521 28.4973 5.38695 28.9718 6.23439C31.1274 10.084 30.3761 14.9959 27.1342 18.2491C24.5206 20.8719 21.0535 21.7521 17.3029 20.745L16.8183 20.6149L16.8179 19.0117C16.8177 18.0744 16.79 17.3092 16.7512 17.1695C16.5527 16.4546 15.4671 15.9018 13.8307 15.6826C13.4916 15.6371 12.879 15.6224 12.2104 15.6437L11.1353 15.678L10.855 15.0113C9.87451 12.6792 9.76447 10.2811 10.5316 7.96159C10.7421 7.3248 11.3482 6.08901 11.725 5.5282C12.7335 4.02722 14.1407 2.78442 15.724 1.99639C16.5818 1.56945 17.315 1.31346 18.2564 1.11219C19.2034 0.909721 20.9293 0.906032 21.9145 1.10437C22.6346 1.24937 23.5965 1.55269 24.2199 1.83125C24.6737 2.03397 24.8842 2.03885 25.061 1.8507C25.1975 1.70539 25.2307 1.53075 25.1578 1.34091C25.0712 1.11512 23.6634 0.547999 22.5395 0.286133C21.3644 0.0123249 20.046 -0.0698364 18.9221 0.0607213ZM16.5625 6.52845C15.268 6.94307 14.8553 9.06364 15.842 10.2302C16.0984 10.5334 16.6327 10.7702 17.0591 10.7696C18.1471 10.768 18.985 9.50233 18.7587 8.20232C18.5422 6.95908 17.5586 6.20944 16.5625 6.52845ZM22.6812 6.56978C22.4193 6.80939 16.8808 15.0361 16.8808 15.1855C16.8808 15.5236 17.1722 15.7334 17.4888 15.6231C17.6272 15.5748 18.2625 14.6801 20.5393 11.3268C22.9415 7.78876 23.4141 7.0575 23.4101 6.88561C23.4044 6.63919 23.2927 6.51357 23.0335 6.46174C22.8848 6.43197 22.8051 6.45642 22.6812 6.56978ZM17.3568 7.49194C17.5854 7.63125 17.8016 8.04368 17.8567 8.44486C17.957 9.17687 17.4203 9.9646 16.9087 9.83616C16.4964 9.73268 16.1395 9.0143 16.2176 8.44486C16.2975 7.86229 16.6715 7.3732 17.0371 7.3732C17.1059 7.3732 17.2498 7.42666 17.3568 7.49194ZM22.8658 11.3789C22.3367 11.5065 21.9312 11.8706 21.6518 12.4688C21.4948 12.805 21.4767 12.9122 21.4766 13.5018C21.4766 14.1192 21.4892 14.1853 21.6821 14.5771C22.3325 15.8981 23.7597 16.0348 24.5555 14.8522C25.317 13.7204 24.922 11.9315 23.8094 11.4736C23.5108 11.3508 23.1377 11.3133 22.8658 11.3789ZM23.6234 12.4541C24.1878 12.9731 24.126 14.2039 23.5151 14.6098C23.2489 14.7867 23.1422 14.7869 22.8825 14.6103C22.4529 14.3183 22.2671 13.5696 22.4716 12.954C22.569 12.6608 22.8038 12.3712 23.0085 12.2916C23.1682 12.2295 23.4643 12.3078 23.6234 12.4541ZM13.4286 16.5683C14.4428 16.6793 15.2713 16.9239 15.6811 17.2332C15.8833 17.3858 15.8856 17.3928 15.7749 17.5151C15.4103 17.9184 13.8685 18.3141 12.6602 18.3145C11.5595 18.315 10.2545 18.045 9.69012 17.7001C9.28907 17.455 9.31377 17.3328 9.81518 17.0801C10.7184 16.6249 12.1255 16.4256 13.4286 16.5683ZM9.94023 18.8254C10.7536 19.1149 11.4174 19.2117 12.5977 19.2131C13.8241 19.2146 14.5803 19.0991 15.4226 18.7821C15.6482 18.6972 15.8435 18.6277 15.8565 18.6277C15.8697 18.6277 15.8804 18.8363 15.8804 19.0911C15.8804 19.5287 15.87 19.5633 15.6938 19.7115C15.3013 20.0417 14.1797 20.3385 13.0459 20.4121C11.9092 20.4859 10.4923 20.2401 9.74452 19.8393L9.40875 19.6594L9.39049 19.1359C9.3736 18.6536 9.38098 18.6159 9.48428 18.6577C9.54587 18.6827 9.75108 18.7582 9.94023 18.8254ZM9.7347 20.8709C10.5966 21.2084 12.0775 21.4204 13.0979 21.3523C13.8533 21.3017 14.7869 21.1197 15.3711 20.909C15.6079 20.8236 15.8194 20.7537 15.841 20.7537C15.8627 20.7537 15.8804 20.9636 15.8804 21.2202C15.8804 21.7523 15.8257 21.836 15.3248 22.0715C13.9471 22.7191 11.157 22.7114 9.85351 22.0564C9.40037 21.8286 9.37748 21.7896 9.37748 21.2442C9.37748 20.9744 9.39049 20.7537 9.40643 20.7537C9.42238 20.7537 9.57007 20.8064 9.7347 20.8709ZM10.9094 23.3513C11.6787 23.5122 13.0192 23.541 13.8749 23.415C14.4528 23.3299 15.3342 23.095 15.8022 22.9015C15.8608 22.8772 15.8804 22.9928 15.8804 23.365C15.8804 23.9068 15.8543 23.9548 15.4481 24.1607C14.124 24.8321 11.54 24.8906 10.0447 24.283C9.44451 24.0391 9.37748 23.9481 9.37748 23.3764V22.8945L9.89333 23.0706C10.177 23.1674 10.6343 23.2937 10.9094 23.3513ZM2.54521 23.1275C3.38946 23.4103 4.15324 23.5253 5.18813 23.5253C6.22303 23.5253 6.9868 23.4103 7.83105 23.1275C8.13524 23.0256 8.39661 22.9421 8.41187 22.9421C8.42712 22.9421 8.43957 23.1517 8.43957 23.4079C8.43957 23.8604 8.43375 23.8781 8.23635 24.0263C7.44782 24.6186 5.18294 24.8854 3.62994 24.5689C2.90212 24.4205 2.29542 24.1953 2.08076 23.9936C1.95577 23.8762 1.9367 23.7976 1.9367 23.4002C1.9367 23.1483 1.94914 22.9421 1.9644 22.9421C1.97965 22.9421 2.24102 23.0256 2.54521 23.1275ZM3.23546 25.4512C3.93314 25.6136 5.69823 25.6803 6.43762 25.5722C7.05321 25.4822 7.75945 25.3016 8.15 25.1341L8.43957 25.01V25.4983C8.43957 26.06 8.41462 26.0974 7.87494 26.3445C7.13193 26.6847 6.51816 26.7854 5.18813 26.7854C3.85811 26.7854 3.24434 26.6847 2.50132 26.3445C1.96246 26.0978 1.9367 26.0594 1.9367 25.5033V25.0201L2.31317 25.1721C2.5202 25.2558 2.9352 25.3813 3.23546 25.4512ZM10.2626 25.3409C11.0887 25.5794 11.8045 25.6511 12.983 25.6134C14.0585 25.5791 14.5861 25.4885 15.4213 25.1949C15.6198 25.1252 15.8043 25.0681 15.8313 25.0681C15.8583 25.0681 15.8804 25.265 15.8804 25.5058C15.8804 26.0004 15.8231 26.0927 15.3736 26.3219C14.5269 26.754 12.6177 26.9458 11.3219 26.7291C10.5559 26.6011 9.87139 26.3763 9.58757 26.1599C9.38011 26.0016 9.37748 25.9934 9.37748 25.501V25.0024L9.55919 25.0963C9.65917 25.148 9.97568 25.2581 10.2626 25.3409ZM21.378 25.1677C22.4449 25.351 23.2799 25.7119 23.2443 25.9745C23.2206 26.1489 22.5904 26.4502 21.8712 26.6308C20.3098 27.0231 17.7259 26.7573 17.002 26.1299L16.787 25.9435L17.0058 25.7538C17.249 25.543 17.9433 25.3002 18.6892 25.1651C19.3511 25.0453 20.6725 25.0465 21.378 25.1677ZM3.78207 27.6667C4.26278 27.7455 4.65127 27.7614 5.46951 27.7355C6.60538 27.6996 7.23854 27.5903 8.02001 27.2954L8.44457 27.1352L8.42644 27.6468L8.4083 28.1583L8.12693 28.33C7.77452 28.5451 6.92409 28.792 6.20614 28.8878C5.58868 28.9701 4.22214 28.9339 3.68747 28.821C3.14204 28.7058 2.39927 28.4488 2.17436 28.2976C1.97277 28.1619 1.96752 28.1469 1.95001 27.6567L1.93201 27.1548L2.54484 27.3595C2.88186 27.4721 3.43861 27.6103 3.78207 27.6667ZM10.4299 27.5024C11.291 27.7194 11.9 27.7759 12.9661 27.7373C14.0399 27.6986 14.704 27.5811 15.4583 27.2964L15.8804 27.1371V27.6007C15.8804 28.026 15.8662 28.0775 15.7084 28.2243C15.5066 28.412 15.057 28.5899 14.3178 28.7746C13.5913 28.956 11.7984 28.9704 11.0128 28.801C10.3909 28.6669 9.90365 28.4917 9.61777 28.2993C9.41243 28.1611 9.40843 28.1497 9.39061 27.6462L9.37248 27.1338L9.66148 27.2577C9.82043 27.3258 10.1663 27.4359 10.4299 27.5024ZM18.0688 27.5567C18.6715 27.7087 18.8306 27.7225 20.0072 27.7239C21.3837 27.7256 21.8027 27.668 22.7124 27.3518C22.9612 27.2654 23.193 27.1874 23.2273 27.1787C23.2632 27.1695 23.2978 27.3461 23.3086 27.5932C23.3246 27.9642 23.3084 28.0436 23.1912 28.1684C23 28.3719 22.5753 28.5586 21.8834 28.7431C21.3548 28.8841 21.1611 28.9023 20.1322 28.9076C19.2357 28.9122 18.858 28.8882 18.4536 28.801C17.8317 28.6669 17.3444 28.4917 17.0586 28.2993C16.8532 28.1611 16.8492 28.1497 16.8314 27.6462L16.8133 27.1338L17.1128 27.2624C17.2775 27.3332 17.7077 27.4656 18.0688 27.5567ZM2.67221 29.5034C3.59799 29.8099 4.30837 29.9007 5.46951 29.8611C6.63871 29.8211 7.38491 29.6717 8.33014 29.2884C8.42862 29.2485 8.43957 29.2913 8.43957 29.7153C8.43957 30.2681 8.40543 30.3177 7.84368 30.5806C6.96091 30.9936 5.2571 31.1753 4.03137 30.9871C3.26872 30.87 2.48606 30.6287 2.17117 30.4135L1.9367 30.2534V29.7502C1.9367 29.3721 1.95614 29.2551 2.01485 29.2793C2.05787 29.2971 2.35363 29.3979 2.67221 29.5034ZM10.0028 29.4821C10.8383 29.7733 11.3964 29.8515 12.6289 29.8503C13.9924 29.8489 14.7086 29.7209 15.7709 29.2886C15.8693 29.2486 15.8804 29.2909 15.8804 29.7088C15.8804 30.1109 15.8614 30.1909 15.7397 30.3025C15.2668 30.7356 13.9169 31.0648 12.5977 31.0684C11.5199 31.0714 10.1282 30.7662 9.61196 30.4135L9.37748 30.2534V29.7487C9.37748 29.2914 9.38774 29.2486 9.48691 29.2923C9.54712 29.3188 9.77922 29.4042 10.0028 29.4821ZM18.3815 29.7383C18.7869 29.8246 19.1873 29.8512 20.0697 29.8503C21.3443 29.849 21.8809 29.7675 22.786 29.4381C23.0591 29.3388 23.2913 29.2574 23.3018 29.2574C23.3124 29.2574 23.3211 29.4636 23.3211 29.7155C23.3211 30.2514 23.255 30.3438 22.6952 30.5901C21.7132 31.0222 20.1917 31.1779 18.8814 30.9804C18.1716 30.8734 17.3568 30.6259 17.0626 30.4279C16.8528 30.2868 16.8493 30.2769 16.8315 29.7777L16.8135 29.2707L17.3317 29.4479C17.6167 29.5454 18.0891 29.6761 18.3815 29.7383Z" fill="white"/>
</svg>
