<svg xmlns="http://www.w3.org/2000/svg" style="display:none;">
    <!-- Логотипы -->
    <symbol id="logo" viewBox="0 0 168 56">
        <path d="M2.52109 54.3049H0V53.6821L4.6404 43.874H7.44273L12.0781 53.6821V54.3049H9.55702L8.65305 52.281H3.40999L2.52109 54.3049ZM4.44956 49.9457H7.62854L6.04157 46.38L4.44956 49.9457Z" fill="white"/>
        <path d="M24.0653 47.2991V47.9218C24.0653 48.4408 24.0017 48.9262 23.8745 49.3782C23.7439 49.8302 23.523 50.2236 23.2116 50.5584C22.9002 50.8966 22.4767 51.1644 21.941 51.3619C21.4087 51.5595 20.7374 51.6582 19.9271 51.6582H19.4902C18.9311 51.6582 18.3837 51.6532 17.848 51.6432C17.3123 51.6331 16.79 51.5863 16.2811 51.5026V54.3049H13.4788V43.874C14.3727 43.7702 15.3102 43.6916 16.2912 43.638C17.2721 43.5878 18.2347 43.5627 19.1789 43.5627H19.6158C20.4863 43.5627 21.2078 43.6614 21.7803 43.859C22.3495 44.0565 22.8065 44.3227 23.1513 44.6575C23.4928 44.9956 23.7305 45.394 23.8645 45.8527C23.9984 46.3081 24.0653 46.7902 24.0653 47.2991ZM19.0533 49.1673C19.6057 49.1673 20.0309 49.1288 20.3289 49.0518C20.6302 48.9714 20.8512 48.8609 20.9918 48.7203C21.1324 48.5831 21.2128 48.4207 21.2329 48.2332C21.253 48.0457 21.263 47.8381 21.263 47.6105C21.263 47.3828 21.253 47.1719 21.2329 46.9777C21.2128 46.7868 21.1358 46.6244 21.0019 46.4905C20.8646 46.3533 20.657 46.2461 20.3791 46.1691C20.0979 46.0921 19.6928 46.0536 19.1638 46.0536C18.8323 46.0536 18.3988 46.0636 17.8631 46.0837C17.3274 46.1038 16.8001 46.1407 16.2811 46.1942V49.0267C16.7699 49.0903 17.232 49.1288 17.6672 49.1422C18.1058 49.1589 18.5678 49.1673 19.0533 49.1673Z" fill="white"/>
        <path d="M25.9339 54.3049V43.874C26.8278 43.7702 27.7653 43.6916 28.7463 43.638C29.7272 43.5878 30.6898 43.5627 31.634 43.5627H32.0709C32.9414 43.5627 33.6629 43.6447 34.2354 43.8087C34.8046 43.9761 35.2616 44.2005 35.6064 44.4817C35.9479 44.7596 36.1856 45.0894 36.3196 45.471C36.4535 45.8494 36.5204 46.2511 36.5204 46.6763V46.9877C36.5204 47.443 36.3865 47.8582 36.1187 48.2332C35.8475 48.6048 35.3654 48.8844 34.6723 49.0719C35.0741 49.1656 35.4156 49.2862 35.6968 49.4335C35.9781 49.5774 36.2007 49.7432 36.3648 49.9307C36.5322 50.1181 36.6527 50.3174 36.7264 50.5283C36.7967 50.7426 36.8318 50.9635 36.8318 51.1912V51.5026C36.8318 51.9278 36.7598 52.3295 36.6159 52.7079C36.4719 53.0862 36.2174 53.416 35.8525 53.6972C35.4909 53.9784 35.0038 54.2011 34.3911 54.3651C33.7784 54.5326 33.005 54.6163 32.0709 54.6163H31.634C30.6898 54.6163 29.7272 54.5895 28.7463 54.5359C27.7653 54.4857 26.8278 54.4087 25.9339 54.3049ZM31.6942 46.0536C31.3125 46.0536 30.8539 46.0636 30.3182 46.0837C29.7825 46.1038 29.2552 46.1407 28.7362 46.1942V47.9218H31.5084C32.1412 47.9218 32.63 47.8984 32.9749 47.8515C33.3164 47.8046 33.5641 47.7394 33.7181 47.6556C33.8755 47.5719 33.9676 47.4732 33.9943 47.3593C34.0178 47.2455 34.0295 47.1216 34.0295 46.9877C34.0295 46.8638 34.0144 46.745 33.9843 46.6311C33.9542 46.514 33.8638 46.4118 33.7131 46.3248C33.5624 46.2377 33.3281 46.1708 33.01 46.1239C32.6953 46.077 32.2567 46.0536 31.6942 46.0536ZM31.5084 50.4128H28.7362V51.9847C29.2552 52.0349 29.7825 52.0717 30.3182 52.0952C30.8539 52.1153 31.3293 52.1253 31.7444 52.1253C32.3672 52.1253 32.8527 52.1019 33.2009 52.055C33.5457 52.0081 33.8052 51.9412 33.9793 51.8541C34.15 51.7637 34.2538 51.6616 34.2906 51.5478C34.3241 51.4339 34.3409 51.3151 34.3409 51.1912C34.3409 51.0874 34.3258 50.9853 34.2957 50.8848C34.2655 50.7878 34.1617 50.7057 33.9843 50.6388C33.8068 50.5718 33.5273 50.5166 33.1456 50.473C32.7606 50.4329 32.2148 50.4128 31.5084 50.4128Z" fill="white"/>
        <path d="M41.6587 50.5684L47.1278 43.874H49.9301V54.3049H47.1278V47.6104L41.6587 54.3049H38.8564V43.874H41.6587V50.5684Z" fill="white"/>
        <path d="M51.9532 49.4937V48.6852C51.9532 47.9787 52.0403 47.3141 52.2144 46.6914C52.3918 46.0687 52.6932 45.5263 53.1184 45.0643C53.5436 44.6022 54.1194 44.2356 54.846 43.9644C55.5725 43.6966 56.4865 43.5627 57.588 43.5627H58.1455C58.8519 43.5627 59.5383 43.6062 60.2045 43.6932C60.8674 43.7836 61.5203 43.9108 62.1631 44.0749V46.6111C61.8015 46.5073 61.4366 46.4202 61.0683 46.3499C60.7 46.2763 60.3368 46.216 59.9785 46.1691C59.6203 46.1222 59.2771 46.0888 58.949 46.0687C58.6209 46.0486 58.3279 46.0385 58.0701 46.0385C57.2599 46.0385 56.6338 46.1139 56.1919 46.2645C55.7533 46.4152 55.4319 46.6244 55.2276 46.8923C55.0268 47.1635 54.9079 47.4849 54.8711 47.8565C54.8342 48.2315 54.8158 48.6417 54.8158 49.0869C54.8158 49.5356 54.8342 49.9457 54.8711 50.3174C54.9079 50.6923 55.0268 51.0171 55.2276 51.2916C55.4319 51.5662 55.7533 51.7788 56.1919 51.9294C56.6338 52.0801 57.2599 52.1554 58.0701 52.1554C58.3279 52.1554 58.6209 52.1454 58.949 52.1253C59.2771 52.1052 59.6203 52.0717 59.9785 52.0249C60.3368 51.978 60.7 51.9144 61.0683 51.834C61.4366 51.757 61.8015 51.6666 62.1631 51.5628V54.1191C61.5203 54.2731 60.8674 54.3936 60.2045 54.4807C59.5383 54.5711 58.8519 54.6163 58.1455 54.6163H57.588C56.4865 54.6163 55.5725 54.4807 54.846 54.2095C54.1194 53.9416 53.5436 53.5767 53.1184 53.1147C52.6932 52.6526 52.3918 52.1102 52.2144 51.4875C52.0403 50.8648 51.9532 50.2002 51.9532 49.4937Z" fill="white"/>
        <path d="M31.7217 24.6562C31.3442 24.6654 30.9665 24.6456 30.592 24.5968L30.8827 24.6359C30.2614 24.5513 29.6539 24.3853 29.0759 24.1422L29.3371 24.2524C28.7842 24.0163 28.2632 23.7117 27.786 23.346L28.0073 23.517C27.5244 23.1429 27.0907 22.7092 26.7168 22.2261L26.8878 22.4474C26.5211 21.9688 26.2162 21.4459 25.9802 20.8911L26.0904 21.1523C25.8518 20.5821 25.688 19.9834 25.6032 19.3712L25.6422 19.6619C25.6083 19.4067 25.5875 19.1499 25.5799 18.8926C25.5749 18.6036 25.4605 18.3273 25.2597 18.1194C25.07 17.9297 24.7589 17.7869 24.4865 17.7991C23.9086 17.825 23.3748 18.2801 23.393 18.8926C23.4416 20.5303 23.9633 22.1755 24.9532 23.4904C25.2202 23.8451 25.498 24.1884 25.8148 24.5001C26.129 24.8032 26.4648 25.083 26.8196 25.3374C27.4691 25.8132 28.2037 26.1708 28.9646 26.4306C29.8525 26.7281 30.7856 26.8677 31.7217 26.8431C32.293 26.8294 32.842 26.35 32.8151 25.7497C32.7891 25.169 32.3343 24.6416 31.7217 24.6562Z" fill="#C43185"/>
        <path d="M30.7137 11.8946C31.0912 11.8854 31.4688 11.9053 31.8433 11.9541L31.5526 11.915C32.1739 11.9996 32.7814 12.1655 33.3594 12.4087L33.0982 12.2984C33.6511 12.5346 34.1722 12.8392 34.6493 13.2049L34.428 13.0339C34.911 13.408 35.3446 13.8417 35.7185 14.3248L35.5476 14.1035C35.9142 14.5821 36.2192 15.105 36.4551 15.6598L36.3449 15.3986C36.5836 15.9687 36.7474 16.5674 36.8322 17.1797L36.7931 16.889C36.827 17.1442 36.8478 17.401 36.8554 17.6583C36.8604 17.9473 36.9749 18.2236 37.1757 18.4315C37.3653 18.6212 37.6765 18.764 37.9488 18.7518C38.5267 18.7259 39.0605 18.2708 39.0423 17.6583C38.9937 16.0206 38.4721 14.3753 37.4822 13.0605C37.2151 12.7058 36.9373 12.3625 36.6205 12.0508C36.3063 11.7477 35.9705 11.4679 35.6158 11.2135C34.9662 10.7377 34.2316 10.3801 33.4707 10.1203C32.5829 9.8228 31.6497 9.68317 30.7137 9.70775C30.1423 9.72144 29.5933 10.2009 29.6202 10.8012C29.6462 11.3819 30.1011 11.9093 30.7137 11.8946Z" fill="#C43185"/>
        <path d="M31.2125 20.9741C32.6918 20.9741 33.8911 19.7748 33.8911 18.2955C33.8911 16.8161 32.6918 15.6169 31.2125 15.6169C29.7331 15.6169 28.5339 16.8161 28.5339 18.2955C28.5339 19.7748 29.7331 20.9741 31.2125 20.9741Z" fill="#C43185"/>
        <path d="M45.253 20.5429C45.2354 20.9783 45.1977 21.412 45.1398 21.8441L45.1866 21.4953C45.0269 22.6611 44.7158 23.801 44.2612 24.8864L44.3935 24.5729C43.9419 25.6408 43.3553 26.6465 42.6479 27.5652L42.8531 27.2996C42.1494 28.2086 41.3339 29.0251 40.426 29.73L40.6915 29.5249C39.7674 30.2384 38.7553 30.8301 37.6802 31.2853L37.9937 31.153C36.9073 31.6089 35.766 31.9208 34.5987 32.0806L34.9475 32.0337C34.1704 32.1375 33.3859 32.1748 32.6025 32.1451C31.9158 32.1193 31.2594 32.767 31.2903 33.4572C31.3232 34.1902 31.8668 34.7418 32.6025 34.7693C35.6241 34.8829 38.607 34.0599 41.1428 32.413C42.3604 31.6164 43.4792 30.6496 44.4094 29.5292C44.9138 28.9286 45.3725 28.291 45.7818 27.6219C46.1889 26.9474 46.5206 26.2392 46.8218 25.5121C47.4038 24.1067 47.7238 22.6106 47.8445 21.0964C47.8592 20.9121 47.8701 20.7276 47.8773 20.5429C47.9051 19.8562 47.2539 19.1999 46.5652 19.2308C45.8305 19.2637 45.2829 19.8072 45.253 20.5429Z" fill="white"/>
        <path d="M25.5104 26.8903C25.3162 26.7582 25.126 26.6207 24.9397 26.4778L25.2053 26.683C24.4289 26.0835 23.7318 25.3877 23.1308 24.6124L23.336 24.878C22.7391 24.1015 22.2434 23.2524 21.8606 22.3509L21.9929 22.6644C21.5971 21.7238 21.3266 20.7354 21.1883 19.7244L21.2352 20.0733C21.0995 19.0589 21.0984 18.0311 21.232 17.0165L21.1851 17.3653C21.3213 16.3583 21.5902 15.3737 21.9846 14.4371L21.8523 14.7506C22.1462 14.0605 22.5056 13.4001 22.9256 12.7787C23.1088 12.5073 23.1425 12.0749 23.0579 11.7676C22.9741 11.4632 22.7387 11.1334 22.4549 10.9834C22.1503 10.8225 21.7814 10.7419 21.4438 10.8512C21.1065 10.9603 20.8588 11.1591 20.6596 11.4542C19.2123 13.5978 18.4496 16.2151 18.5102 18.8007C18.5694 21.3259 19.3737 23.8659 20.8573 25.9178C21.304 26.5355 21.7897 27.1262 22.3356 27.6589C22.9074 28.2112 23.5265 28.7122 24.1859 29.1562C24.456 29.3401 24.8908 29.3728 25.1969 29.2885C25.5013 29.2047 25.8311 28.9694 25.9811 28.6855C26.142 28.381 26.2226 28.0121 26.1134 27.6744C26.004 27.3365 25.805 27.0907 25.5104 26.8903Z" fill="white"/>
        <path d="M24.3805 10.7243C25.1402 10.7243 25.7561 10.1084 25.7561 9.34862C25.7561 8.58887 25.1402 7.97296 24.3805 7.97296C23.6207 7.97296 23.0048 8.58887 23.0048 9.34862C23.0048 10.1084 23.6207 10.7243 24.3805 10.7243Z" fill="white"/>
        <path d="M28.8039 34.3142C29.5434 34.3142 30.1428 33.7147 30.1428 32.9753C30.1428 32.2358 29.5434 31.6364 28.8039 31.6364C28.0645 31.6364 27.465 32.2358 27.465 32.9753C27.465 33.7147 28.0645 34.3142 28.8039 34.3142Z" fill="white"/>
        <path d="M39.2518 11.956C39.3228 12.043 39.3927 12.131 39.4615 12.2198L39.2563 11.9542C39.8574 12.7351 40.3565 13.5893 40.7417 14.4963L40.6095 14.1829C40.9996 15.1122 41.2664 16.0886 41.403 17.0872L41.3562 16.7383C41.4929 17.7637 41.4925 18.8027 41.3549 19.828L41.4018 19.4792C41.2644 20.4798 40.9973 21.4582 40.6072 22.3898L40.7394 22.0763C40.3551 22.9852 39.8556 23.8409 39.2533 24.6226L39.4585 24.3571C38.9256 25.0429 38.3179 25.6671 37.6465 26.2182C37.4017 26.4194 37.2622 26.8424 37.2622 27.1461C37.2622 27.4679 37.4052 27.8523 37.6465 28.0739C37.8966 28.3034 38.2249 28.4738 38.5744 28.4582L38.9232 28.4113C39.1422 28.3509 39.3417 28.2346 39.5022 28.0739C41.5008 26.4313 42.9619 24.1314 43.637 21.6363C44.2952 19.2037 44.2313 16.5415 43.3993 14.1583C43.1467 13.4276 42.8313 12.7202 42.4565 12.044C42.0704 11.3534 41.6072 10.7129 41.1074 10.1003C40.9076 9.85534 40.4821 9.71602 40.1796 9.71602C39.8578 9.71602 39.4734 9.85897 39.2518 10.1003C39.0222 10.3504 38.8518 10.6787 38.8675 11.0282L38.9144 11.377C38.9748 11.596 39.091 11.7955 39.2518 11.956Z" fill="#5272FF"/>
        <path d="M17.2202 16.6094C17.2298 16.0811 17.2695 15.5538 17.3392 15.03L17.2923 15.3789C17.452 14.2051 17.7653 13.0575 18.2241 11.9654L18.0918 12.2789C18.5437 11.2131 19.13 10.2094 19.8363 9.29228L19.6311 9.55784C20.3353 8.64853 21.1513 7.83166 22.0599 7.12656L21.7943 7.33173C22.7107 6.62449 23.7137 6.03723 24.7789 5.58421L24.4655 5.71649C25.5569 5.25658 26.7041 4.94212 27.8775 4.78118L27.5287 4.82805C28.134 4.74694 28.744 4.70587 29.3548 4.70512C29.7019 4.70064 30.034 4.56307 30.2826 4.3208C30.5102 4.09322 30.6816 3.71984 30.6669 3.39298C30.6517 3.05363 30.5403 2.70167 30.2826 2.46516C30.0261 2.22969 29.7101 2.08031 29.3548 2.08084C27.8475 2.08311 26.3185 2.30962 24.8827 2.7716C23.4951 3.21808 22.1566 3.86209 20.9635 4.70142C19.7839 5.53119 18.7114 6.50375 17.8225 7.64166C17.3424 8.25626 16.8929 8.88718 16.5084 9.56664C16.1291 10.2467 15.8008 10.9541 15.5265 11.6829C14.9895 13.0846 14.6992 14.5802 14.6153 16.0774C14.6053 16.2546 14.5989 16.4319 14.5959 16.6094C14.5897 16.9419 14.7465 17.3036 14.9802 17.5372C15.2078 17.7648 15.5812 17.9362 15.908 17.9216C16.6298 17.8892 17.2066 17.3452 17.2202 16.6094Z" fill="#5272FF"/>
        <path d="M33.4387 5.04558C34.1959 5.04558 34.8097 4.43179 34.8097 3.67463C34.8097 2.91748 34.1959 2.30368 33.4387 2.30368C32.6816 2.30368 32.0678 2.91748 32.0678 3.67463C32.0678 4.43179 32.6816 5.04558 33.4387 5.04558Z" fill="#5272FF"/>
        <path d="M35.3197 30.5801C36.0753 30.5801 36.6878 29.9675 36.6878 29.2119C36.6878 28.4563 36.0753 27.8438 35.3197 27.8438C34.5641 27.8438 33.9515 28.4563 33.9515 29.2119C33.9515 29.9675 34.5641 30.5801 35.3197 30.5801Z" fill="#5272FF"/>
        <path d="M90.9065 16.3706C90.9065 20.1573 93.1765 20.9458 95.6273 20.9458C96.4007 20.9458 97.611 20.8503 98.6857 20.6846L98.6154 19.861C97.5758 20.087 96.3203 20.1372 95.803 20.1372C93.6285 20.1372 91.7552 19.5245 91.7552 16.3706C91.7552 13.2017 93.6435 12.9154 95.6021 12.9154C96.3555 12.9154 97.5758 12.9757 98.6154 13.1766L98.6857 12.353C97.5859 12.1973 96.4157 12.0918 95.5067 12.0918C93.2116 12.0918 90.9065 12.5689 90.9065 16.3706Z" fill="white"/>
        <path d="M103.763 20.9458C105.882 20.9458 107.469 20.3632 107.469 17.3148C107.469 14.3166 105.892 13.8596 104.089 13.8596C101.985 13.8596 100.393 14.4572 100.393 17.4956C100.393 20.5038 101.97 20.9458 103.763 20.9458ZM103.743 20.1372C102.462 20.1372 101.257 19.9313 101.257 17.4705C101.257 15.0448 102.462 14.6832 104.135 14.6832C105.39 14.6832 106.62 14.8891 106.62 17.35C106.62 19.7756 105.425 20.1372 103.743 20.1372Z" fill="white"/>
        <path d="M111.668 20.1372C111.175 20.1372 110.136 20.087 109.071 19.861L109.026 20.6846C109.99 20.8504 111.035 20.9458 111.808 20.9458C113.134 20.9458 114.821 20.7198 114.821 19.0976C114.821 18.1384 114.199 17.6011 113.245 17.36C114.058 17.124 114.606 16.6318 114.606 15.6776C114.606 14.1007 113.089 13.8596 111.748 13.8596C110.949 13.8596 109.92 13.9701 108.941 14.1208L109.026 14.9595C109.98 14.7435 111.01 14.6832 111.688 14.6832C112.632 14.6832 113.772 14.6832 113.772 15.7379C113.772 16.667 112.873 16.9582 111.703 16.9582H110.171V17.7819H111.808C112.993 17.7819 113.963 18.1384 113.963 19.0725C113.963 20.1473 112.622 20.1473 111.668 20.1372Z" fill="white"/>
        <path d="M116.78 22.8341V20.78H123.067V22.8341H123.916V19.9564H122.887V14.0404H117.654L117.413 16.5514C117.247 18.51 117.257 18.8214 116.509 19.9564H115.921V22.8341H116.78ZM118.276 16.5514L118.432 14.8389H122.038V19.9564H117.428C118.106 18.8214 118.131 18.3644 118.276 16.5514Z" fill="white"/>
        <path d="M129.019 14.6832C130.205 14.6832 131.159 15.3914 131.159 16.682L126.94 17.134C125.891 17.2294 125.293 17.7919 125.293 18.7712C125.293 20.2427 126.323 20.9458 128.231 20.9458C129.582 20.9458 130.637 20.6595 131.254 19.9213C131.41 20.4687 131.817 20.8755 132.655 20.8755C132.726 20.8755 132.796 20.8755 132.896 20.8654L132.846 20.0418C132.846 20.0418 132.846 20.077 132.655 20.077C132.143 20.077 132.058 19.5747 132.058 19.0976V16.6921C132.058 14.7937 130.742 13.8596 129.06 13.8596C128.1 13.8596 126.87 13.9701 125.735 14.1208L125.805 14.9595C126.93 14.7435 128.136 14.6832 129.019 14.6832ZM131.159 18.6406C130.923 19.7053 129.848 20.1372 128.281 20.1372C126.905 20.1372 126.177 19.7053 126.177 18.7511C126.177 18.2941 126.438 17.9978 126.955 17.9476L131.159 17.5157V18.6406Z" fill="white"/>
        <path d="M137.592 20.9458C138.285 20.9458 139.601 20.8504 140.721 20.6846L140.665 19.861C139.586 20.077 138.174 20.1372 137.662 20.1372C135.94 20.1372 134.9 19.4542 134.744 17.807H140.952V17.4002C140.952 14.6732 139.661 13.8596 137.542 13.8596C135.583 13.8596 133.876 14.5527 133.876 17.35C133.876 19.9665 135.382 20.9458 137.592 20.9458ZM137.522 14.7184C139.083 14.7184 139.982 15.2106 140.088 17.0034H134.744C134.88 15.08 136.146 14.7184 137.522 14.7184Z" fill="white"/>
        <path d="M150.785 20.78V14.0404H150.047L146.878 18.6758L143.724 14.0404H142.981V20.78H143.83V15.6876L146.522 19.5848H147.25L149.927 15.6876V20.78H150.785Z" fill="white"/>
        <path d="M98.4451 33.6416V30.7589H97.4406V24.8429H96.5819V30.7589H92.062V24.8429H91.2133V31.5876H97.6114V33.6416H98.4451Z" fill="white"/>
        <path d="M100.835 31.5876L105.631 26.2792V31.5876H106.48V24.8429H105.807L101.006 30.1613V24.8429H100.157V31.5876H100.835Z" fill="white"/>
        <path d="M109.789 31.5876V28.6095H111.281L113.948 31.5876H115.047L112.014 28.2127L115.047 24.8429H113.948L111.281 27.811H109.789V24.8429H108.941V31.5876H109.789Z" fill="white"/>
        <path d="M122.389 31.5876V24.8429H117.021L116.815 29.6239C116.77 30.6786 116.388 30.8443 115.825 30.8443C115.755 30.8443 115.609 30.8443 115.444 30.8091L115.383 31.5976C115.609 31.6077 115.825 31.6579 116.006 31.6579C116.9 31.6579 117.593 31.3214 117.664 29.6239L117.844 25.6464H121.541V31.5876H122.389Z" fill="white"/>
        <path d="M125.509 31.5876L130.301 26.2792V31.5876H131.149V24.8429H130.481L125.675 30.1613V24.8429H124.826V31.5876H125.509Z" fill="white"/>
        <path d="M138.691 31.5725L139.54 31.5876V24.8429H138.691V28.037C138.154 28.1926 137.21 28.3835 135.869 28.3835C134.744 28.3835 134.187 27.7507 134.187 26.5554V24.8429H133.323V26.5554C133.323 28.3333 134.197 29.1971 135.919 29.1971C137.315 29.1971 138.189 29.0414 138.691 28.9108V31.5725Z" fill="white"/>
        <path d="M142.825 31.5876V28.6095H147.691V31.5876H148.54V24.8429H147.691V27.811H142.825V24.8429H141.976V31.5876H142.825Z" fill="white"/>
        <path d="M152.102 34.2141H153.001L157.651 24.8429H156.752L154.005 30.3923L151.052 24.8429H150.083L153.548 31.3013L152.102 34.2141Z" fill="white"/>
        <path d="M159.859 31.5875V28.6094H160.899C161.004 31.0703 162.416 31.7533 164.339 31.7533C166.574 31.7533 168 30.8091 168 28.1173C168 25.4204 166.539 24.6671 164.53 24.6671C162.451 24.6671 161.08 25.5008 160.909 27.8109H159.859V24.8429H159.011V31.5875H159.859ZM164.449 30.9397C162.832 30.9397 161.748 30.4626 161.748 28.3232C161.748 26.1938 162.812 25.4907 164.545 25.4907C165.966 25.4907 167.136 25.9578 167.136 28.1072C167.136 30.1412 166.122 30.9397 164.449 30.9397Z" fill="white"/>
        <path d="M93.4275 41.7472C92.7093 41.7472 91.6948 41.687 90.7356 41.471L90.6553 42.2946C91.6346 42.4604 92.6591 42.5558 93.4727 42.5558C95.4363 42.5558 97.0132 41.5162 97.0132 39.0102C97.0132 36.1777 95.4363 35.4696 93.4727 35.4696C92.6591 35.4696 91.6346 35.5801 90.6553 35.7358L90.7356 36.5695C91.6948 36.3535 92.7093 36.2932 93.4275 36.2932C94.8487 36.2932 96.0088 36.7151 96.1494 38.6134H91.3483V39.417H96.1394C95.9837 41.0642 94.8236 41.7472 93.4275 41.7472Z" fill="white"/>
        <path d="M99.9062 42.39V39.417H101.398L104.065 42.39H105.164L102.126 39.0202L105.164 35.6504H104.065L101.398 38.6134H99.9062V35.6504H99.0575V42.39H99.9062Z" fill="white"/>
        <path d="M109.202 42.5558C111.321 42.5558 112.908 41.9732 112.908 38.9248C112.908 35.9266 111.331 35.4696 109.528 35.4696C107.424 35.4696 105.832 36.0672 105.832 39.1056C105.832 42.1138 107.409 42.5558 109.202 42.5558ZM109.182 41.7472C107.901 41.7472 106.696 41.5413 106.696 39.0805C106.696 36.6548 107.901 36.2932 109.573 36.2932C110.829 36.2932 112.059 36.4991 112.059 38.96C112.059 41.3856 110.864 41.7472 109.182 41.7472Z" fill="white"/>
        <path d="M115.791 42.39V39.417H120.653V42.39H121.501V35.6504H120.653V38.6134H115.791V35.6504H114.943V42.39H115.791Z" fill="white"/>
        <path d="M126.94 42.5558C129.06 42.5558 130.647 41.9732 130.647 38.9248C130.647 35.9266 129.07 35.4696 127.267 35.4696C125.162 35.4696 123.57 36.0672 123.57 39.1056C123.57 42.1138 125.147 42.5558 126.94 42.5558ZM126.92 41.7472C125.639 41.7472 124.429 41.5413 124.429 39.0805C124.429 36.6548 125.639 36.2932 127.312 36.2932C128.567 36.2932 129.798 36.4991 129.798 38.96C129.798 41.3856 128.603 41.7472 126.92 41.7472Z" fill="white"/>
        <path d="M140.484 42.39V35.6504H139.741L136.577 40.2858L133.418 35.6504H132.68V42.39H133.529V37.2976L136.216 41.1948H136.944L139.621 37.2976V42.39H140.484Z" fill="white"/>
        <path d="M143.592 42.39L148.383 37.0817V42.39H149.232V35.6504H148.564L143.758 40.9688V35.6504H142.909V42.39H143.592Z" fill="white"/>
        <path d="M152.542 42.39V39.417H154.039L156.701 42.39H157.8L154.767 39.0202L157.8 35.6504H156.701L154.039 38.6134H152.542V35.6504H151.694V42.39H152.542Z" fill="white"/>
        <path d="M160.337 45.0216H161.236L165.882 35.6504H164.988L162.236 41.1948L159.288 35.6504H158.318L161.784 42.1038L160.337 45.0216Z" fill="white"/>
        <path d="M78.0657 55.0747L78.1216 0.65387C78.122 0.262353 77.8613 0.00107395 77.4698 0.000671851C77.0782 0.00026975 76.817 0.261013 76.8166 0.65253L76.7607 55.0081C76.7603 55.3996 77.0211 55.6609 77.4126 55.6613C77.8041 55.6617 78.0654 55.401 78.0657 55.0747Z" fill="#C43185"/>
    </symbol>

    <!-- Соц. сети -->
    <symbol id="facebook" viewBox="0 0 16 16">
        <path d="M8.37891 16H5.74219C5.49929 16 5.30273 15.7903 5.30273 15.5312V9.375H3.98437C3.74147 9.375 3.54492 9.16534 3.54492 8.90625V6.09375C3.54492 5.83466 3.74147 5.625 3.98437 5.625H5.30273V3.28125C5.30273 1.47216 6.68288 0 8.37891 0H11.0156C11.2585 0 11.4551 0.209656 11.4551 0.46875V3.28125C11.4551 3.54034 11.2585 3.75 11.0156 3.75H8.81836V5.625H11.0156C11.1448 5.625 11.2675 5.68544 11.3508 5.79072C11.4345 5.896 11.4705 6.03472 11.449 6.17066L11.0096 8.98316C10.9744 9.20928 10.7912 9.375 10.5761 9.375H8.81833V15.5312C8.81836 15.7903 8.62181 16 8.37891 16Z" fill="white"/>
    </symbol>
    <symbol id="telegram" viewBox="0 0 16 16">
        <path d="M14.92 1.09205L0.747101 6.79416C-0.220143 7.19948 -0.214547 7.76244 0.56964 8.01347L4.2084 9.19776L12.6274 3.65579C13.0255 3.40309 13.3892 3.53903 13.0903 3.81592L6.26919 10.2386H6.26759L6.26919 10.2394L6.01818 14.1526C6.38589 14.1526 6.54817 13.9766 6.75441 13.769L8.52182 11.9758L12.1982 14.809C12.876 15.1984 13.3628 14.9983 13.5315 14.1543L15.9448 2.28802C16.1918 1.25468 15.5667 0.786807 14.92 1.09205V1.09205Z" fill="white"/>
    </symbol>
    <symbol id="youtube" viewBox="0 0 16 17">
        <path fill-rule="evenodd" clip-rule="evenodd" d="M15.1125 3.19524C15.3577 3.44043 15.5344 3.74557 15.6249 4.08028C16.1465 6.17952 16.0259 9.49496 15.6351 11.6752C15.5445 12.0099 15.3678 12.3151 15.1226 12.5603C14.8774 12.8054 14.5723 12.9821 14.2376 13.0727C13.0123 13.4069 8.08063 13.4069 8.08063 13.4069C8.08063 13.4069 3.14899 13.4069 1.92367 13.0727C1.58896 12.9821 1.28382 12.8054 1.03864 12.5603C0.793449 12.3151 0.616773 12.0099 0.526202 11.6752C0.00164518 9.58509 0.145443 6.26762 0.516076 4.09041C0.606646 3.7557 0.783322 3.45056 1.02851 3.20537C1.27369 2.96018 1.57884 2.78351 1.91354 2.69294C3.13886 2.35876 8.07051 2.34863 8.07051 2.34863C8.07051 2.34863 13.0022 2.34863 14.2275 2.68281C14.5622 2.77338 14.8673 2.95006 15.1125 3.19524ZM10.5921 7.87777L6.50094 10.2474V5.50815L10.5921 7.87777Z" fill="white"/>
    </symbol>


    <!-- Стрелки -->
    <symbol id="arrow_triangle" viewBox="0 0 24 24">
        <path d="M10 7L16 12L10 17V7Z"/>
    </symbol>
    <symbol id="arrow_more" viewBox="0 0 24 24">
        <path d="M12 2C17.52 2 22 6.48 22 12C22 17.52 17.52 22 12 22C6.48 22 2 17.52 2 12C2 6.48 6.48 2 12 2ZM12 11H8V13H12V16L16 12L12 8V11Z"/>
    </symbol>
    <!-- <symbol id="arrow_thin" viewBox="0 0 8 8">
    </symbol> -->

    <!-- 
        Фигуры на заднем фоне

        main - главный экран
        s-news - раздел с новостями
        s-vt - раздел с видеосюжетами
        b - bullets
        r - rectangle
        t - top
        l - left
        r - right
     -->
    <symbol id="main_b" viewBox="0 0 82 56">
        <circle cx="54" cy="2" r="2" fill="white"/>
        <circle cx="80" cy="2" r="2" fill="white"/>
        <circle cx="80" cy="28" r="2" fill="white"/>
        <circle cx="28" cy="2" r="2" fill="white"/>
        <circle cx="28" cy="54" r="2" fill="white"/>
        <circle cx="28" cy="28" r="2" fill="white"/>
        <circle cx="54" cy="28" r="2" fill="white"/>
        <circle cx="2" cy="2" r="2" fill="white"/>
        <circle cx="2" cy="54" r="2" fill="white"/>
        <circle cx="2" cy="28" r="2" fill="white"/>
    </symbol>
    <symbol id="s-news_b-t" viewBox="0 0 238 30">
        <circle opacity="0.4" cx="54" cy="2" r="2" fill="#7E4F84"/>
        <circle opacity="0.4" cx="158" cy="2" r="2" fill="#7E4F84"/>
        <circle opacity="0.4" cx="54" cy="28" r="2" fill="#7E4F84"/>
        <circle opacity="0.4" cx="158" cy="28" r="2" fill="#7E4F84"/>
        <circle opacity="0.4" cx="2" cy="28" r="2" fill="#7E4F84"/>
        <circle opacity="0.4" cx="210" cy="28" r="2" fill="#7E4F84"/>
        <circle opacity="0.4" cx="106" cy="28" r="2" fill="#7E4F84"/>
        <circle opacity="0.4" cx="2" cy="2" r="2" fill="#7E4F84"/>
        <circle opacity="0.4" cx="210" cy="2" r="2" fill="#7E4F84"/>
        <circle opacity="0.4" cx="106" cy="2" r="2" fill="#7E4F84"/>
        <circle opacity="0.4" cx="28" cy="2" r="2" fill="#7E4F84"/>
        <circle opacity="0.4" cx="236" cy="2" r="2" fill="#7E4F84"/>
        <circle opacity="0.4" cx="132" cy="2" r="2" fill="#7E4F84"/>
        <circle opacity="0.4" cx="28" cy="28" r="2" fill="#7E4F84"/>
        <circle opacity="0.4" cx="236" cy="28" r="2" fill="#7E4F84"/>
        <circle opacity="0.4" cx="132" cy="28" r="2" fill="#7E4F84"/>
        <circle opacity="0.4" cx="184" cy="28" r="2" fill="#7E4F84"/>
        <circle opacity="0.4" cx="80" cy="28" r="2" fill="#7E4F84"/>
        <circle opacity="0.4" cx="184" cy="2" r="2" fill="#7E4F84"/>
        <circle opacity="0.4" cx="80" cy="2" r="2" fill="#7E4F84"/>
    </symbol>
    <symbol id="s-news_r-t" viewBox="0 0 142 108">
        <rect width="142" height="108" fill="#A64B89" fill-opacity="0.06"/>
    </symbol>
    <symbol id="s-news_b-b-l" viewBox="0 0 134 82">
        <circle opacity="0.4" cx="80" cy="54" r="2" fill="#7E4F84"/>
        <circle opacity="0.4" cx="80" cy="80" r="2" fill="#7E4F84"/>
        <circle opacity="0.4" cx="28" cy="28" r="2" fill="#7E4F84"/>
        <circle opacity="0.4" cx="132" cy="80" r="2" fill="#7E4F84"/>
        <circle opacity="0.4" cx="28" cy="80" r="2" fill="#7E4F84"/>
        <circle opacity="0.4" cx="28" cy="2" r="2" fill="#7E4F84"/>
        <circle opacity="0.4" cx="132" cy="54" r="2" fill="#7E4F84"/>
        <circle opacity="0.4" cx="28" cy="54" r="2" fill="#7E4F84"/>
        <circle opacity="0.4" cx="54" cy="54" r="2" fill="#7E4F84"/>
        <circle opacity="0.4" cx="54" cy="80" r="2" fill="#7E4F84"/>
        <circle opacity="0.4" cx="2" cy="28" r="2" fill="#7E4F84"/>
        <circle opacity="0.4" cx="106" cy="80" r="2" fill="#7E4F84"/>
        <circle opacity="0.4" cx="2" cy="80" r="2" fill="#7E4F84"/>
        <circle opacity="0.4" cx="2" cy="2" r="2" fill="#7E4F84"/>
        <circle opacity="0.4" cx="106" cy="54" r="2" fill="#7E4F84"/>
        <circle opacity="0.4" cx="2" cy="54" r="2" fill="#7E4F84"/>
    </symbol>
    <symbol id="s-news_b-b-r" viewBox="0 0 82 56">
        <circle cx="54" cy="2" r="2" fill="#7E4F84"/>
        <circle cx="80" cy="2" r="2" fill="#7E4F84"/>
        <circle cx="80" cy="28" r="2" fill="#7E4F84"/>
        <circle cx="80" cy="54" r="2" fill="#7E4F84"/>
        <circle cx="28" cy="54" r="2" fill="#7E4F84"/>
        <circle cx="28" cy="28" r="2" fill="#7E4F84"/>
        <circle cx="54" cy="28" r="2" fill="#7E4F84"/>
        <circle cx="54" cy="54" r="2" fill="#7E4F84"/>
        <circle cx="2" cy="54" r="2" fill="#7E4F84"/>
        <circle cx="2" cy="28" r="2" fill="#7E4F84"/>
    </symbol>
    <symbol id="s-news_b-b-r" viewBox="0 0 82 56">
        <circle cx="54" cy="2" r="2" fill="#7E4F84"/>
        <circle cx="80" cy="2" r="2" fill="#7E4F84"/>
        <circle cx="80" cy="28" r="2" fill="#7E4F84"/>
        <circle cx="80" cy="54" r="2" fill="#7E4F84"/>
        <circle cx="28" cy="54" r="2" fill="#7E4F84"/>
        <circle cx="28" cy="28" r="2" fill="#7E4F84"/>
        <circle cx="54" cy="28" r="2" fill="#7E4F84"/>
        <circle cx="54" cy="54" r="2" fill="#7E4F84"/>
        <circle cx="2" cy="54" r="2" fill="#7E4F84"/>
        <circle cx="2" cy="28" r="2" fill="#7E4F84"/>
    </symbol>
    <symbol id="s-vt_b-t" viewBox="0 0 134 57">
        <circle opacity="0.4" cx="80" cy="28.1814" r="2" fill="#7E4F84"/>
        <circle opacity="0.4" cx="80" cy="54.1814" r="2" fill="#7E4F84"/>
        <circle opacity="0.4" cx="28" cy="2.1814" r="2" fill="#7E4F84"/>
        <circle opacity="0.4" cx="132" cy="54.1814" r="2" fill="#7E4F84"/>
        <circle opacity="0.4" cx="28" cy="54.1814" r="2" fill="#7E4F84"/>
        <circle opacity="0.4" cx="80" cy="2.1814" r="2" fill="#7E4F84"/>
        <circle opacity="0.4" cx="132" cy="2.1814" r="2" fill="#7E4F84"/>
        <circle opacity="0.4" cx="132" cy="28.1814" r="2" fill="#7E4F84"/>
        <circle opacity="0.4" cx="28" cy="28.1814" r="2" fill="#7E4F84"/>
        <circle opacity="0.4" cx="54" cy="28.1814" r="2" fill="#7E4F84"/>
        <circle opacity="0.4" cx="54" cy="54.1814" r="2" fill="#7E4F84"/>
        <circle opacity="0.4" cx="2" cy="2.1814" r="2" fill="#7E4F84"/>
        <circle opacity="0.4" cx="106" cy="54.1814" r="2" fill="#7E4F84"/>
        <circle opacity="0.4" cx="2" cy="54.1814" r="2" fill="#7E4F84"/>
        <circle opacity="0.4" cx="54" cy="2.1814" r="2" fill="#7E4F84"/>
        <circle opacity="0.4" cx="106" cy="2.1814" r="2" fill="#7E4F84"/>
        <circle opacity="0.4" cx="106" cy="28.1814" r="2" fill="#7E4F84"/>
        <circle opacity="0.4" cx="2" cy="28.1814" r="2" fill="#7E4F84"/>
    </symbol>
    <symbol id="s-vt_r" viewBox="0 0 159 127">
        <rect width="159" height="127" fill="#A64B89" fill-opacity="0.06"/>
    </symbol>





    <!-- Прочие -->
    <symbol id="copyright" viewBox="0 0 16 15">
        <path d="M12.9498 2.23141C11.6276 0.909289 9.86977 0.181152 8 0.181152C6.13023 0.181152 4.37239 0.909262 3.05023 2.23139C1.72814 3.55354 1 5.31139 1 7.18115C1 9.05092 1.72814 10.8088 3.05023 12.1309C4.37239 13.453 6.13023 14.1812 8 14.1812C9.86977 14.1812 11.6276 13.453 12.9497 12.1309C14.2719 10.8088 15 9.05092 15 7.18115C15 5.31139 14.2719 3.55354 12.9498 2.23141ZM8 13.3608C4.5925 13.3608 1.82031 10.5886 1.82031 7.18115C1.82031 3.77366 4.5925 1.00146 8 1.00146C11.4075 1.00146 14.1797 3.77366 14.1797 7.18115C14.1797 10.5886 11.4075 13.3608 8 13.3608Z" fill="white" stroke="white" stroke-width="0.2"/>
        <path d="M11.1664 8.12334C10.9588 8.03258 10.717 8.12736 10.6263 8.33495C10.1669 9.38648 9.12868 10.0659 7.98142 10.0659C6.39075 10.0659 5.09665 8.77182 5.09665 7.18115C5.09665 5.59048 6.39075 4.29639 7.98142 4.29639C9.12206 4.29639 10.1578 4.97038 10.6201 6.01346C10.7119 6.22057 10.9542 6.31411 11.1613 6.22226C11.3684 6.1305 11.4619 5.8882 11.3701 5.6811C10.7764 4.34159 9.4463 3.47607 7.98145 3.47607C5.93846 3.47607 4.27637 5.13816 4.27637 7.18115C4.27637 9.22414 5.93846 10.8862 7.98145 10.8862C9.45475 10.8862 10.788 10.0137 11.378 8.6634C11.4687 8.45584 11.374 8.21404 11.1664 8.12334Z" fill="white" stroke="white" stroke-width="0.2"/>
    </symbol>

</svg>