<svg width="32" height="32" viewBox="0 0 32 32" fill="none" xmlns="http://www.w3.org/2000/svg">
<path fill-rule="evenodd" clip-rule="evenodd" d="M3.06586 0.0771393C2.6993 0.20382 2.36743 0.488726 2.18249 0.835595L2.02012 1.14015L2.00346 13.7765C1.99217 22.3343 2.00839 26.4904 2.05384 26.6533C2.15798 27.0266 2.49543 27.4093 2.89137 27.6031L3.24302 27.7752H4.81601H6.389L6.40929 29.3556C6.42823 30.8352 6.43847 30.9519 6.56946 31.1863C6.73325 31.4793 6.98725 31.72 7.30492 31.8833C7.52254 31.9952 7.83502 32 14.8917 32H22.2515L22.8196 31.8038C23.1321 31.6959 23.5521 31.5128 23.753 31.397C24.1291 31.1801 28.6847 27.1029 29.083 26.6268C29.3963 26.2521 29.7309 25.5801 29.8752 25.0355C29.9962 24.5791 30.0004 24.2439 30 15.0753C29.9998 8.73235 29.9774 5.51007 29.9325 5.35422C29.8266 4.98601 29.4885 4.60565 29.0967 4.41382L28.7451 4.2417H27.1721H25.5991L25.5788 2.66132C25.5609 1.26283 25.5446 1.05572 25.4377 0.861883C25.2685 0.555258 25.019 0.310096 24.7156 0.151996L24.4562 0.0169285L13.8866 0.00365961C5.01404 -0.00754385 3.27667 0.0042855 3.06586 0.0771393ZM24.3024 1.27823C24.372 1.35915 24.3914 1.68912 24.3914 2.79601V4.2104L15.9616 4.2417L7.53187 4.27299L7.2725 4.40806C6.93297 4.58494 6.69487 4.83329 6.53204 5.18054C6.40086 5.46031 6.39996 5.53341 6.39853 16.0587L6.3971 26.6552L4.91548 26.6362C3.77779 26.6217 3.40902 26.5974 3.3268 26.5315C3.22791 26.4521 3.21974 25.4865 3.21974 13.9085C3.21974 2.59473 3.22966 1.36197 3.32161 1.27316C3.41343 1.18459 4.45496 1.17483 13.8184 1.17483C23.404 1.17483 24.2203 1.1829 24.3024 1.27823ZM28.5738 5.44929L28.7359 5.52847V15.1028V24.6771L26.1746 24.7084L23.6132 24.7397L23.2474 24.913C22.8416 25.1054 22.4366 25.4924 22.2075 25.907C22.0598 26.1742 22.0564 26.222 22.0245 28.495L21.9921 30.8108H14.8612H7.73023L7.64795 30.6543C7.58213 30.5292 7.56877 28.0071 7.58122 18.0528L7.59672 5.60758L7.74982 5.48797C7.89909 5.37125 8.15678 5.3683 18.1573 5.36924C26.2946 5.36993 28.4451 5.38652 28.5738 5.44929ZM12.1105 9.71174C11.7528 9.90314 11.6912 10.2784 11.9684 10.5779L12.1576 10.7823H18.1919H24.2263L24.4028 10.6118C24.6603 10.3633 24.6477 10.0429 24.3709 9.80419L24.1623 9.62437L18.2139 9.62656C13.401 9.62837 12.2359 9.64465 12.1105 9.71174ZM12.0872 13.5725C12.0247 13.6076 11.928 13.7215 11.8723 13.8255C11.7425 14.068 11.8014 14.3397 12.0199 14.5056C12.1833 14.6297 12.2718 14.6315 18.1793 14.6315C22.3487 14.6315 24.2128 14.6109 24.3038 14.5639C24.3759 14.5267 24.4764 14.3999 24.5274 14.2823C24.6077 14.0967 24.6077 14.0397 24.5274 13.8541C24.4764 13.7365 24.3759 13.6097 24.3038 13.5725C24.1264 13.4809 12.2502 13.4809 12.0872 13.5725ZM12.0199 17.5114C11.9286 17.5806 11.8353 17.7194 11.8124 17.8197C11.7643 18.0315 11.9098 18.3494 12.0998 18.4476C12.2782 18.5398 24.1252 18.5367 24.3038 18.4444C24.476 18.3554 24.6153 18.0243 24.5721 17.8065C24.5533 17.7111 24.4644 17.5773 24.3748 17.5092C24.215 17.3879 24.0907 17.3854 18.1987 17.3854C12.2718 17.3854 12.1833 17.3872 12.0199 17.5114ZM12.1934 21.2638C12.014 21.3349 11.7792 21.6265 11.7792 21.7782C11.7792 21.9825 11.959 22.2463 12.1503 22.3228C12.2837 22.3761 13.243 22.3912 15.6931 22.3786L19.053 22.3613L19.2095 22.1856C19.4164 21.9534 19.4164 21.6425 19.2095 21.4103L19.053 21.2347L15.6917 21.2221C13.843 21.2153 12.2687 21.234 12.1934 21.2638ZM28.0813 25.97C27.8108 26.2656 23.3033 30.3414 23.2469 30.3414C23.2104 30.3414 23.1939 29.573 23.2053 28.4056C23.2267 26.2084 23.2164 26.2521 23.7766 25.9758C24.0551 25.8385 24.1133 25.835 26.1335 25.835H28.2048L28.0813 25.97Z" fill="white"/>
</svg>
