<svg width="32" height="32" viewBox="0 0 32 32" fill="none" xmlns="http://www.w3.org/2000/svg">
<path fill-rule="evenodd" clip-rule="evenodd" d="M8.51994 0.0981804C8.14441 0.23138 7.78525 0.56841 7.61486 0.94757C7.4716 1.26641 7.46535 1.34286 7.44466 3.04426C7.42478 4.67241 7.41465 4.81004 7.31433 4.81004C7.04593 4.81004 6.60058 5.02756 6.34437 5.28377C5.89783 5.73031 5.87064 5.87895 5.87064 7.87588V9.60685L5.56586 9.64729C5.23683 9.69092 4.83773 9.92407 4.62378 10.1975C4.29806 10.6139 4.28043 10.7272 4.24631 12.6216L4.21424 14.4013L3.95334 14.4459C3.44905 14.5317 3.04463 14.8606 2.8128 15.3735C2.6871 15.6514 2.6856 15.7468 2.68423 23.2961L2.68285 30.9374H1.52168H0.360517L0.177813 31.1201C-0.059271 31.3572 -0.059271 31.5802 0.177813 31.8173L0.360517 32H15.9966H31.6326L31.8153 31.8173C32.0524 31.5802 32.0524 31.3572 31.8153 31.1201L31.6326 30.9374H30.4714H29.3103L29.3089 23.2961C29.3075 15.7468 29.306 15.6514 29.1803 15.3735C28.9485 14.8606 28.5441 14.5317 28.0398 14.4459L27.7789 14.4013L27.7468 12.6216C27.7127 10.7272 27.695 10.6139 27.3693 10.1975C27.1554 9.92407 26.7563 9.69092 26.4272 9.64729L26.1225 9.60685V7.87588C26.1225 5.87895 26.0953 5.73031 25.6487 5.28377C25.3925 5.02756 24.9472 4.81004 24.6788 4.81004C24.5785 4.81004 24.5683 4.67241 24.5485 3.04426C24.5278 1.34286 24.5215 1.26641 24.3783 0.94757C24.2952 0.762865 24.1199 0.522844 23.9812 0.404083C23.4782 -0.0264559 23.9368 -0.00339129 15.9698 0.0020467C9.83369 0.00623458 8.7394 0.0203609 8.51994 0.0981804ZM23.1802 1.15115C23.2775 1.20147 23.3745 1.2881 23.3959 1.34379C23.4172 1.39942 23.4347 2.20212 23.4347 3.12752V4.81004H19.4324C15.6763 4.81004 15.4278 4.80329 15.3936 4.70066C15.1153 3.86708 14.6406 3.29384 13.9427 2.949C13.4875 2.72398 13.4493 2.71617 12.812 2.7181C12.2817 2.71967 12.0851 2.74698 11.8087 2.85755C11.1449 3.12295 10.5556 3.74363 10.2989 4.44789L10.1668 4.81004H9.36258H8.55838V3.10308C8.55838 1.31773 8.56332 1.28304 8.83966 1.1319C8.92798 1.08358 11.0239 1.06296 15.9841 1.06158C22.025 1.05995 23.0281 1.07246 23.1802 1.15115ZM13.4338 3.87752C13.7794 4.03391 14.0321 4.26706 14.1909 4.57565L14.3115 4.81004H12.81C11.9843 4.81004 11.3086 4.7946 11.3086 4.77567C11.3086 4.54502 11.9196 3.93496 12.2597 3.82602C12.6061 3.71501 13.1251 3.73776 13.4338 3.87752ZM24.8153 5.95277C25.0417 6.12666 25.0599 6.27561 25.0599 7.96245V9.62298H19.4392H13.8185L13.7427 9.38858C13.3296 8.11278 12.1699 7.35196 10.8711 7.50472C10.2356 7.57942 9.82881 7.78394 9.3367 8.27611C8.90429 8.70846 8.8451 8.80903 8.58945 9.54485C8.56963 9.60198 8.34324 9.62298 7.74775 9.62298H6.93324V7.96245C6.93324 6.27561 6.95136 6.12666 7.17782 5.95277C7.32233 5.84182 24.6708 5.84182 24.8153 5.95277ZM11.7831 8.65245C11.9043 8.70315 12.0792 8.80378 12.1717 8.87616C12.3421 9.00942 12.6838 9.47234 12.6838 9.56985C12.6838 9.5991 12.0228 9.62298 11.2149 9.62298C10.231 9.62298 9.74599 9.60129 9.74599 9.55735C9.74599 9.31808 10.137 8.88479 10.5296 8.68889C10.8325 8.53782 11.4647 8.51944 11.7831 8.65245ZM26.5023 10.8468L26.6538 11.008L26.6723 12.6907L26.6908 14.3734H19.4372C13.3485 14.3734 12.1837 14.3597 12.1837 14.288C12.1837 14.0638 11.724 13.308 11.403 13.0043C10.035 11.7106 7.75687 12.24 7.11481 14.0009L6.97899 14.3734H6.14066H5.30234L5.32084 12.6907L5.33934 11.008L5.49086 10.8468L5.64243 10.6856H15.9966H26.3507L26.5023 10.8468ZM10.2193 13.4663C10.5579 13.6054 11.0586 14.1261 11.0586 14.339C11.0586 14.358 10.3976 14.3734 9.58973 14.3734C8.78184 14.3734 8.12084 14.3495 8.12084 14.3203C8.12084 14.2023 8.50994 13.7408 8.73515 13.5918C9.14781 13.3187 9.7388 13.2687 10.2193 13.4663ZM28.0968 15.6426L28.2477 15.818V23.3777V30.9374H15.9966H3.74545V23.3827C3.74545 15.8977 3.74664 15.8264 3.87171 15.6674C3.94115 15.5791 4.06066 15.4946 4.13736 15.4796C4.21399 15.4646 9.60229 15.4558 16.1114 15.4598L27.9459 15.4673L28.0968 15.6426ZM8.2146 17.7176C7.73162 17.8499 7.19851 18.171 6.79979 18.5697C5.78644 19.5831 5.58268 21.1574 6.30687 22.3785C7.40209 24.2252 9.815 24.5418 11.3205 23.0362C12.2972 22.0595 12.524 20.5957 11.8934 19.3377C11.5397 18.6319 10.7201 17.9569 9.93319 17.7231C9.52359 17.6015 8.64852 17.5987 8.2146 17.7176ZM14.0248 17.7772C13.8261 17.9758 13.8251 18.2505 14.0222 18.4797L14.1731 18.655H19.9969H25.8208L25.9716 18.4797C26.1687 18.2505 26.1677 17.9758 25.969 17.7772L25.8156 17.6237H19.9969H14.1782L14.0248 17.7772ZM9.64017 18.7528C10.267 18.9118 10.9384 19.584 11.1096 20.2239C11.4328 21.4323 10.6658 22.6583 9.45084 22.8754C7.5928 23.2075 6.26605 21.1856 7.3089 19.6113C7.79069 18.8839 8.75596 18.5285 9.64017 18.7528ZM14.2062 20.3104C13.8659 20.449 13.7689 20.9022 14.0248 21.1581L14.1782 21.3115H19.9969H25.8156L25.969 21.1581C26.1677 20.9594 26.1687 20.6847 25.9716 20.4556L25.8208 20.2802L20.0805 20.268C16.922 20.2613 14.2799 20.2804 14.2062 20.3104ZM14.1526 23.0122C13.9606 23.1223 13.8754 23.2624 13.8754 23.468C13.8754 23.6794 13.9638 23.8198 14.1641 23.9266C14.3599 24.0308 25.6339 24.0308 25.8297 23.9266C26.03 23.8198 26.1185 23.6794 26.1185 23.468C26.1185 23.2566 26.03 23.1161 25.8297 23.0094C25.6357 22.9061 14.333 22.9087 14.1526 23.0122ZM6.02409 25.7779C5.82539 25.9765 5.82439 26.2512 6.02147 26.4804L6.17236 26.6558H15.9966H25.8208L25.9716 26.4804C26.1687 26.2512 26.1677 25.9765 25.969 25.7779L25.8156 25.6244H15.9966H6.17748L6.02409 25.7779ZM6.20548 28.3114C5.86526 28.4494 5.76819 28.903 6.02409 29.1588L6.17748 29.3123H15.9966H25.8156L25.969 29.1588C26.1677 28.9602 26.1687 28.6854 25.9716 28.4563L25.8208 28.2809L16.0801 28.2689C10.6713 28.2623 6.27986 28.2812 6.20548 28.3114Z" fill="white"/>
</svg>
